<svg width="20" height="20" viewBox="0 0 20 20" fill="none" xmlns="http://www.w3.org/2000/svg">
<path d="M1.5 6.25C1.5 6.6875 1.15625 7 0.75 7C0.3125 7 0 6.6875 0 6.25V3C0 2.46875 0.4375 2 1 2H4.25C4.65625 2 5 2.34375 5 2.75C5 3.1875 4.65625 3.5 4.25 3.5H1.5V6.25ZM3.96875 7.5C3.96875 6.6875 4.65625 6 5.46875 6C6.3125 6 6.96875 6.6875 6.96875 7.5C6.96875 8.34375 6.3125 9 5.46875 9C4.65625 9 3.96875 8.34375 3.96875 7.5ZM6.8125 10C7.09375 10 7.375 10.0938 7.625 10.2188C6.59375 10.5938 5.8125 11.4375 5.5625 12.5H3.8125C3.34375 12.5 3 12.1562 3 11.6875C3 10.75 3.71875 10 4.65625 10H6.8125ZM16.1562 12.5H14.4062C14.1562 11.4375 13.375 10.5938 12.3438 10.2188C12.5938 10.0938 12.875 10 13.1562 10H15.3125C16.25 10 17 10.75 17 11.6875C17 12.1562 16.625 12.5 16.1562 12.5ZM13.5 13.25C13.5 13.6875 13.1562 14 12.75 14H7.25C6.8125 14 6.5 13.6875 6.5 13.25C6.5 13 6.53125 12.75 6.625 12.5C6.875 11.75 7.53125 11.1875 8.34375 11.0312C8.46875 11.0312 8.59375 11 8.75 11H11.25C11.375 11 11.5 11.0312 11.625 11.0312C12.4375 11.1875 13.0938 11.75 13.3438 12.5C13.4375 12.75 13.5 13 13.5 13.25ZM13 7.5C13 6.6875 13.6562 6 14.5 6C15.3125 6 16 6.6875 16 7.5C16 8.34375 15.3125 9 14.5 9C13.6562 9 13 8.34375 13 7.5ZM12 8C12 9.125 11.0938 10 10 10C8.875 10 8 9.125 8 8C8 6.90625 8.875 6 10 6C11.0938 6 12 6.90625 12 8ZM15 2.75C15 2.34375 15.3125 2 15.75 2H19C19.5312 2 20 2.46875 20 3V6.25C20 6.6875 19.6562 7 19.25 7C18.8125 7 18.5 6.6875 18.5 6.25V3.5H15.75C15.3125 3.5 15 3.1875 15 2.75ZM1.5 16.5H4.25C4.65625 16.5 5 16.8438 5 17.25C5 17.6875 4.65625 18 4.25 18H1C0.4375 18 0 17.5625 0 17V13.75C0 13.3438 0.3125 13 0.75 13C1.15625 13 1.5 13.3438 1.5 13.75V16.5ZM15.75 16.5H18.5V13.75C18.5 13.3438 18.8125 13 19.25 13C19.6562 13 20 13.3438 20 13.75V17C20 17.5625 19.5312 18 19 18H15.75C15.3125 18 15 17.6875 15 17.25C15 16.8438 15.3125 16.5 15.75 16.5Z" fill="#52525B"/>
</svg>
