<svg width="32" height="32" viewBox="0 0 32 32" fill="none" xmlns="http://www.w3.org/2000/svg">
<g clip-path="url(#clip0_1_1533)">
<path d="M21.5762 19.48C21.2925 19.48 21.0125 19.4662 20.7337 19.4412C20.5238 20.0621 20.2568 20.6621 19.9362 21.2337C21.8343 21.4931 23.7672 21.2352 25.5309 20.4871C27.2945 19.7391 28.8235 18.5287 29.9562 16.9837C29.7685 16.5083 29.5432 16.0485 29.2825 15.6087C28.3894 16.8108 27.2272 17.7871 25.889 18.4593C24.5508 19.1316 23.0738 19.4811 21.5762 19.48Z" fill="black"/>
<path d="M21.36 3.35977e-07C19.4689 -0.00042574 17.6116 0.502256 15.9789 1.45648C14.3461 2.4107 12.9966 3.7821 12.0687 5.43C11.935 5.66875 11.8087 5.9125 11.6937 6.16125C10.9936 7.66507 10.6535 9.31139 10.7006 10.9696C10.7477 12.6277 11.1806 14.2521 11.965 15.7137C12.09 15.9437 12.2212 16.1663 12.3612 16.385C13.1432 17.6154 14.1689 18.6726 15.3752 19.4913C16.5815 20.3099 17.9428 20.8728 19.375 21.145C19.7459 20.5953 20.0592 20.0089 20.31 19.395C18.8728 19.2042 17.4974 18.6904 16.287 17.8922C15.0767 17.094 14.0627 16.0322 13.3212 14.7863C13.22 14.6175 13.1262 14.445 13.0362 14.27C12.4013 13.0367 12.0411 11.6805 11.9805 10.2948C11.9198 8.90897 12.1602 7.5265 12.685 6.2425C12.7762 6.02125 12.8737 5.805 12.98 5.59375C13.5628 4.42736 14.377 3.39188 15.373 2.55042C16.369 1.70896 17.5259 1.07916 18.7733 0.699405C20.0206 0.319651 21.3322 0.197904 22.6281 0.341584C23.9241 0.485264 25.1772 0.891362 26.311 1.53512C27.4449 2.17888 28.4358 3.04681 29.2233 4.08601C30.0108 5.1252 30.5784 6.31389 30.8915 7.57961C31.2046 8.84532 31.2567 10.1615 31.0445 11.448C30.8324 12.7345 30.3604 13.9643 29.6575 15.0625C29.941 15.4521 30.1971 15.861 30.4237 16.2862C31.426 14.6711 31.9783 12.8174 32.0234 10.9171C32.0686 9.01682 31.605 7.13899 30.6806 5.47805C29.7563 3.81711 28.4047 2.43344 26.766 1.47029C25.1272 0.507138 23.2608 -0.000476744 21.36 3.35977e-07Z" fill="black"/>
<path opacity="0.7" d="M19.5537 10.65L19.6187 10.7612C19.7162 10.7475 19.8137 10.735 19.91 10.725C19.8325 10.59 19.755 10.455 19.6712 10.3225C18.9246 9.13077 17.9487 8.09914 16.8003 7.2874C15.6519 6.47567 14.3538 5.89999 12.9812 5.59375C12.875 5.805 12.7775 6.02125 12.6862 6.2425C14.0847 6.42658 15.4254 6.91705 16.6125 7.67892C17.7996 8.44079 18.8039 9.45528 19.5537 10.65Z" fill="black"/>
<path opacity="0.7" d="M20.04 10.9625C19.9467 10.9725 19.8529 10.9838 19.7588 10.9963C20.8113 12.8395 21.2233 14.9796 20.9301 17.0819C20.637 19.1841 19.6553 21.1299 18.1387 22.6149C16.622 24.0998 14.6559 25.0402 12.5479 25.2889C10.4399 25.5376 8.309 25.0805 6.48842 23.9892C4.66784 22.898 3.26032 21.234 2.48604 19.2577C1.71175 17.2813 1.61439 15.1041 2.20916 13.0665C2.80393 11.029 4.0573 9.24604 5.7732 7.99661C7.4891 6.74718 9.57075 6.10174 11.6925 6.16125C11.8088 5.91125 11.935 5.66875 12.0675 5.43C10.5734 5.22859 9.05355 5.34626 7.60824 5.77522C6.16293 6.20419 4.82499 6.93471 3.68267 7.9186C2.54035 8.9025 1.61961 10.1174 0.981191 11.4832C0.342768 12.849 0.00116728 14.3346 -0.0210785 15.842C-0.0433243 17.3495 0.25429 18.8446 0.852134 20.2286C1.44998 21.6126 2.33447 22.8541 3.44725 23.8713C4.56004 24.8885 5.87584 25.6582 7.30787 26.1296C8.73989 26.601 10.2556 26.7635 11.755 26.6063C12.3019 26.5507 12.8436 26.4521 13.375 26.3113C14.9307 25.8979 16.3728 25.1379 17.5931 24.0882C18.8134 23.0384 19.7803 21.7261 20.4215 20.2496C21.0626 18.7731 21.3614 17.1707 21.2953 15.5623C21.2292 13.954 20.8001 12.3814 20.04 10.9625Z" fill="black"/>
<path opacity="0.5" d="M12.36 16.385C12.22 16.1662 12.0875 15.9437 11.9637 15.7137C11.0744 17.1428 10.5373 18.7627 10.3967 20.44C10.2561 22.1173 10.516 23.8041 11.155 25.3612C11.6672 25.3758 12.1796 25.349 12.6875 25.2812C12.2891 24.5808 11.9796 23.8333 11.7662 23.0562C11.1532 20.8337 11.3641 18.4644 12.36 16.385Z" fill="black"/>
<path opacity="0.5" d="M31.3138 18.5087C31.1014 17.7369 30.8029 16.9913 30.4238 16.2862C30.1971 15.861 29.941 15.4521 29.6575 15.0625C28.5556 13.5478 27.0746 12.3497 25.3632 11.5884C23.6519 10.827 21.7703 10.5293 19.9075 10.725C19.8113 10.735 19.7138 10.7475 19.6163 10.7612C19.1392 10.825 18.667 10.9202 18.2025 11.0462C16.2017 11.592 14.4049 12.7129 13.035 14.27C13.125 14.445 13.2188 14.6175 13.32 14.7862C14.0848 13.756 15.0489 12.8899 16.155 12.2395C17.2611 11.589 18.4866 11.1675 19.7588 11C19.8529 10.9875 19.9467 10.9762 20.04 10.9662C21.7082 10.7929 23.3928 11.0595 24.9259 11.7395C26.4591 12.4196 27.7874 13.4893 28.7787 14.8423C29.7699 16.1952 30.3895 17.7842 30.5757 19.4511C30.7619 21.1179 30.5083 22.8045 29.8402 24.3428C29.172 25.8812 28.1125 27.2177 26.7672 28.2194C25.422 29.221 23.8378 29.8528 22.1724 30.0519C20.5071 30.251 18.8186 30.0104 17.2751 29.3542C15.7317 28.6979 14.387 27.6488 13.375 26.3112C12.8452 26.4518 12.3052 26.5505 11.76 26.6062C13.0449 28.8661 15.1108 30.5789 17.5696 31.4229C20.0284 32.2668 22.7108 32.1838 25.1126 31.1893C27.5145 30.1948 29.4705 28.3575 30.6131 26.0224C31.7557 23.6874 32.0062 21.0155 31.3175 18.5087H31.3138Z" fill="black"/>
</g>
<defs>
<clipPath id="clip0_1_1533">
<rect width="32" height="32" fill="white"/>
</clipPath>
</defs>
</svg>
