<svg width="40" height="40" viewBox="0 0 40 40" fill="none" xmlns="http://www.w3.org/2000/svg">
<path fill-rule="evenodd" clip-rule="evenodd" d="M2.20771 40C0.988076 40 0 39.0113 0 37.7922V2.20768C0 0.988208 0.988232 0 2.20771 0H37.7924C39.0116 0 40 0.988208 40 2.20768V37.7922C40 39.0115 39.0114 40 37.7924 40H27.5994V24.5098H32.7988L33.5773 18.473H27.5994V14.6189C27.5994 12.8711 28.0848 11.68 30.5911 11.68L33.7877 11.6786V6.27924C33.2349 6.20567 31.3373 6.04131 29.1296 6.04131C24.5207 6.04131 21.3653 8.85461 21.3653 14.021V18.473H16.1526V24.5098H21.3653V40H2.20771Z" fill="#1C75EB"/>
</svg>
