<svg width="28" height="24" viewBox="0 0 28 24" fill="none" xmlns="http://www.w3.org/2000/svg">
<g clip-path="url(#clip0_1_1548)">
<path d="M26.4074 0H1.60321C0.724545 0 0.00177002 0.722775 0.00177002 1.60144V21.7586C0.00177002 22.6372 0.724545 23.36 1.60321 23.36H26.4074C27.2861 23.36 28.0089 22.6372 28.0089 21.7586V1.60144C28.0089 0.722775 27.2861 0 26.4074 0ZM24.8912 1.53921C25.4518 1.53921 25.9129 2.00032 25.9129 2.56099C25.9129 3.12165 25.4518 3.58276 24.8912 3.58276C24.3305 3.58276 23.8694 3.12165 23.8694 2.56099C23.8694 2.00032 24.3305 1.53921 24.8912 1.53921ZM21.2462 1.53921C21.8068 1.53921 22.2679 2.00032 22.2679 2.56099C22.2679 3.12165 21.8068 3.58276 21.2462 3.58276C20.6855 3.58276 20.2244 3.12165 20.2244 2.56099C20.2244 2.00032 20.6855 1.53921 21.2462 1.53921ZM17.6012 1.53921C18.1619 1.53921 18.623 2.00032 18.623 2.56099C18.623 3.12165 18.1619 3.58276 17.6012 3.58276C17.0405 3.58276 16.5794 3.12165 16.5794 2.56099C16.5794 2.00032 17.0405 1.53921 17.6012 1.53921ZM25.9522 21.287H2.04532V4.9615H25.9522V21.287Z" fill="#091915"/>
<path d="M9.49849 19.5513C9.66276 19.2786 9.91162 19.067 10.2072 18.9487C10.5028 18.8305 10.8289 18.8121 11.136 18.8963C11.2767 18.9451 11.4258 18.9652 11.5744 18.9552C11.723 18.9452 11.8681 18.9054 12.0011 18.8382C12.134 18.7709 12.252 18.6777 12.3481 18.5639C12.4443 18.4501 12.5165 18.3181 12.5605 18.1758C12.6674 17.8887 12.6589 17.5714 12.5367 17.2905C12.4146 17.0096 12.1884 16.787 11.9056 16.6693C11.6276 16.5426 11.3997 16.3272 11.2574 16.057C11.1151 15.7867 11.0667 15.4768 11.1196 15.176C11.1687 14.8622 11.3264 14.5755 11.5652 14.3661C11.804 14.1566 12.1087 14.0376 12.4263 14.0297C12.7377 14.0232 13.0342 13.8952 13.2526 13.6731C13.471 13.451 13.594 13.1524 13.5954 12.841C13.594 12.5261 13.4682 12.2246 13.2456 12.002C13.023 11.7793 12.7215 11.6536 12.4066 11.6522H12.387C12.0681 11.6427 11.7618 11.5256 11.5179 11.3198C11.2741 11.1141 11.1072 10.8318 11.0443 10.519C11.0086 10.3297 11.0086 10.1353 11.0443 9.94592C11.0777 9.7367 11.1604 9.53845 11.2857 9.3676C11.411 9.19674 11.5752 9.0582 11.7647 8.96345C12.0347 8.81733 12.2381 8.57284 12.3326 8.28074C12.4272 7.98864 12.4056 7.67136 12.2724 7.39476C12.1714 7.10221 11.9584 6.86169 11.6803 6.72599C11.4022 6.59029 11.0815 6.57052 10.7888 6.671C10.4928 6.78951 10.1643 6.79879 9.86201 6.6972C9.60221 6.58031 9.37671 6.39878 9.20703 6.16994C9.07857 5.99866 8.98767 5.80221 8.94027 5.59342C8.89287 5.38462 8.89003 5.16818 8.93193 4.95822H3.47592C6.00743 6.31731 8.41777 9.0486 8.47672 12.6739C8.54222 16.6038 6.46264 19.7772 3.40387 21.2837H9.56727C9.36216 21.045 9.24375 20.7439 9.23127 20.4295C9.21878 20.115 9.31295 19.8055 9.49849 19.5513Z" fill="#091915"/>
<path d="M17.2044 6.53346C17.4506 6.73679 17.6195 7.01858 17.6827 7.3316C17.7459 7.64462 17.6996 7.96985 17.5515 8.25279C17.4301 8.54761 17.2155 8.79458 16.9405 8.95601C16.6655 9.11744 16.3453 9.18446 16.0287 9.14684C15.8813 9.11873 15.7297 9.12071 15.5831 9.15264C15.4365 9.18458 15.2978 9.24583 15.1755 9.3327C15.0531 9.41957 14.9496 9.53028 14.8711 9.65817C14.7926 9.78606 14.7408 9.92849 14.7187 10.0769C14.6555 10.3752 14.7098 10.6863 14.8702 10.9456C15.0306 11.2049 15.2849 11.3923 15.58 11.4688C15.8744 11.551 16.133 11.7289 16.3151 11.9744C16.4971 12.2199 16.5922 12.519 16.5854 12.8246C16.581 13.1343 16.4707 13.4331 16.2729 13.6714C16.0751 13.9097 15.8017 14.0732 15.4981 14.1345C15.2219 14.1827 14.9715 14.3266 14.7909 14.541C14.6102 14.7554 14.5108 15.0266 14.5101 15.307C14.5116 15.622 14.6374 15.9237 14.8601 16.1464C15.0828 16.3692 15.3845 16.495 15.6996 16.4964C15.767 16.4964 15.8345 16.4909 15.901 16.4794C16.2174 16.4399 16.5379 16.5087 16.8103 16.6746C17.0826 16.8405 17.2908 17.0938 17.4009 17.3931C17.4641 17.5752 17.4929 17.7671 17.486 17.9597C17.4864 18.1729 17.4358 18.3832 17.3384 18.5729C17.2409 18.7626 17.0996 18.9263 16.926 19.0502C16.6787 19.2361 16.5133 19.5106 16.4644 19.816C16.4155 20.1215 16.4871 20.4339 16.664 20.6877C16.8256 20.9393 17.0518 21.1429 17.319 21.2771H24.609C22.2903 20.1277 20.1354 17.9662 19.6082 14.8911C18.8615 10.5321 20.9181 6.73323 24.3732 4.95822H16.9424C16.777 5.20471 16.7121 5.50504 16.7608 5.79784C16.8094 6.09063 16.9681 6.35377 17.2044 6.53346Z" fill="#23B781"/>
<path d="M19.3036 21.5162H19.0907C19.1602 21.5365 19.2342 21.5365 19.3036 21.5162Z" fill="#091915"/>
</g>
<defs>
<clipPath id="clip0_1_1548">
<rect width="28.0096" height="23.36" fill="white"/>
</clipPath>
</defs>
</svg>
