<svg width="24" height="24" viewBox="0 0 24 24" fill="none" xmlns="http://www.w3.org/2000/svg">
<g clip-path="url(#clip0_1_1493)">
<path fill-rule="evenodd" clip-rule="evenodd" d="M12.1412 9.6V14.4C12.1412 14.4 16.8 14.4 18.6353 14.4C17.6471 17.5059 16.0941 19.2 12.1412 19.2C8.18823 19.2 5.08235 15.9529 5.08235 12C5.08235 8.04706 8.18823 4.8 12.1412 4.8C14.2588 4.8 15.5294 5.50588 16.8 6.49412C17.7882 5.50588 17.6471 5.36471 20.1882 2.96471C18.0706 1.12941 15.2471 0 12.1412 0C5.50588 0 0.141174 5.36471 0.141174 12C0.141174 18.6353 5.50588 24 12.1412 24C22.0235 24 24.4235 15.3882 23.7176 9.6H12.1412Z" fill="#091915"/>
</g>
<defs>
<clipPath id="clip0_1_1493">
<rect width="24" height="24" fill="white"/>
</clipPath>
</defs>
</svg>
