<svg width="5" height="13" viewBox="0 0 5 13" fill="none" xmlns="http://www.w3.org/2000/svg">
<path d="M1.375 2.07501C1.375 1.67657 1.58594 1.32501 1.9375 1.11407C2.26562 0.903137 2.71094 0.903137 3.0625 1.11407C3.39062 1.32501 3.625 1.67657 3.625 2.07501C3.625 2.49689 3.39062 2.84845 3.0625 3.05939C2.71094 3.27032 2.26562 3.27032 1.9375 3.05939C1.58594 2.84845 1.375 2.49689 1.375 2.07501ZM0.25 5.45001C0.25 5.05157 0.578125 4.70001 1 4.70001H2.5C2.89844 4.70001 3.25 5.05157 3.25 5.45001V10.7H4C4.39844 10.7 4.75 11.0516 4.75 11.45C4.75 11.8719 4.39844 12.2 4 12.2H1C0.578125 12.2 0.25 11.8719 0.25 11.45C0.25 11.0516 0.578125 10.7 1 10.7H1.75V6.20001H1C0.578125 6.20001 0.25 5.87189 0.25 5.45001Z" fill="#2563EB"/>
</svg>
