<svg width="67" height="24" viewBox="0 0 67 24" fill="none" xmlns="http://www.w3.org/2000/svg">
<path fill-rule="evenodd" clip-rule="evenodd" d="M8.88126 23.3521C15.1647 25.2547 21.7886 21.6639 23.6768 15.3315C25.5648 8.99907 22.0018 2.32338 15.7184 0.420453C15.0591 0.220841 14.3959 0.0818849 13.735 0L12.4075 4.45215L13.3178 1.39894C7.67973 0.700571 2.19544 4.172 0.505591 9.83998C-1.18426 15.508 1.49318 21.4508 6.57916 24L7.90648 19.5482L6.99635 22.6011C7.59274 22.8999 8.22195 23.1522 8.88126 23.3521ZM7.90648 19.5482L12.4075 4.45215H15.2618L11.8468 15.9284H17.94L17.2405 18.2678C17.0132 19.0279 16.3186 19.5482 15.531 19.5482H7.90648ZM7.90648 19.5482L12.4075 4.45215H12.3726C11.475 4.45215 10.6836 5.04547 10.4256 5.91174L6.79801 18.0881C6.58107 18.8156 7.12165 19.5482 7.87561 19.5482H7.90648Z" fill="url(#paint0_radial_2015_30)"/>
<path d="M30.5253 19.1994V7.44062H33.0392V17.0324H37.6983V19.1994H30.5253Z" fill="url(#paint1_radial_2015_30)"/>
<path d="M38.2709 14.8991C38.2709 14.0031 38.4497 13.2248 38.8072 12.5641C39.1759 11.8922 39.6843 11.377 40.3323 11.0187C40.9915 10.6491 41.7513 10.4643 42.6116 10.4643C43.4831 10.4643 44.2484 10.6379 44.9076 10.9851C45.578 11.321 46.0975 11.8026 46.4662 12.4297C46.8461 13.0456 47.0417 13.7736 47.0528 14.6135C47.0528 14.9158 47.0305 15.1846 46.9858 15.4198H40.7345V15.487C40.7904 16.1141 40.9915 16.6069 41.3379 16.9652C41.6842 17.3236 42.1591 17.5028 42.7624 17.5028C43.2429 17.5028 43.6395 17.402 43.9523 17.2004C44.2764 16.9876 44.4886 16.6797 44.5892 16.2765H46.9188C46.8294 16.8477 46.6115 17.3628 46.2651 17.8219C45.9188 18.2811 45.4607 18.6451 44.8909 18.9138C44.321 19.1714 43.6674 19.3002 42.93 19.3002C41.9691 19.3002 41.1368 19.121 40.4329 18.7627C39.7402 18.4043 39.2038 17.8947 38.824 17.234C38.4553 16.5621 38.2709 15.7838 38.2709 14.8991ZM44.6898 13.8744C44.6115 13.348 44.3937 12.9449 44.0361 12.6649C43.6898 12.3737 43.2484 12.2281 42.7121 12.2281C42.1982 12.2281 41.7624 12.3793 41.4049 12.6817C41.0586 12.9728 40.8519 13.3704 40.7848 13.8744H44.6898Z" fill="url(#paint2_radial_2015_30)"/>
<path d="M56.8245 17.2004V19.1994H55.6178C54.534 19.1994 54.0033 18.7291 54.0256 17.7884C53.7128 18.2811 53.3273 18.6563 52.8692 18.9138C52.4112 19.1714 51.8581 19.3002 51.2101 19.3002C50.2492 19.3002 49.4727 19.0818 48.8805 18.6451C48.2995 18.1971 48.009 17.57 48.009 16.7637C48.009 15.8454 48.3442 15.1398 49.0146 14.6471C49.6961 14.1431 50.6794 13.8912 51.9642 13.8912H53.6737V13.4712C53.6737 13.0792 53.5285 12.7713 53.238 12.5473C52.9475 12.3121 52.5564 12.1945 52.0648 12.1945C51.6291 12.1945 51.2715 12.2897 50.9922 12.4801C50.7129 12.6705 50.5453 12.9281 50.4894 13.2528H48.2101C48.2883 12.3681 48.6794 11.685 49.3833 11.2034C50.0872 10.7107 51.0201 10.4643 52.1821 10.4643C53.4 10.4643 54.3385 10.7331 54.9977 11.2706C55.6681 11.8082 56.0033 12.5865 56.0033 13.6056V16.6461C56.0033 16.8588 56.0479 17.0044 56.1373 17.0828C56.2267 17.1612 56.3664 17.2004 56.5563 17.2004H56.8245ZM53.6737 15.4702H51.9475C51.4559 15.4702 51.0704 15.571 50.7911 15.7726C50.5229 15.9629 50.3889 16.2373 50.3889 16.5957C50.3889 16.898 50.5006 17.1388 50.724 17.318C50.9587 17.4972 51.2715 17.5868 51.6626 17.5868C52.2771 17.5868 52.7631 17.4132 53.1206 17.066C53.4782 16.7077 53.6625 16.2317 53.6737 15.6382V15.4702Z" fill="url(#paint3_radial_2015_30)"/>
<path d="M66.353 7.44062V19.1994H64.2915L64.0569 18.0067C63.3977 18.869 62.5039 19.3002 61.3754 19.3002C60.6157 19.3002 59.9341 19.121 59.3308 18.7627C58.7274 18.3931 58.2526 17.8723 57.9062 17.2004C57.571 16.5285 57.4034 15.7502 57.4034 14.8655C57.4034 13.9919 57.571 13.2248 57.9062 12.5641C58.2526 11.8922 58.7274 11.377 59.3308 11.0187C59.9453 10.6491 60.6324 10.4643 61.3922 10.4643C62.5095 10.4643 63.3754 10.8563 63.9899 11.6402V7.44062H66.353ZM61.9285 17.3684C62.5653 17.3684 63.0737 17.1444 63.4536 16.6965C63.8335 16.2373 64.0234 15.6382 64.0234 14.8991C64.0234 14.1487 63.8335 13.544 63.4536 13.0848C63.0737 12.6257 62.5653 12.3961 61.9285 12.3961C61.2916 12.3961 60.7777 12.6257 60.3866 13.0848C60.0067 13.544 59.8168 14.1431 59.8168 14.8823C59.8168 15.6214 60.0067 16.2205 60.3866 16.6797C60.7777 17.1388 61.2916 17.3684 61.9285 17.3684Z" fill="url(#paint4_radial_2015_30)"/>
<defs>
<radialGradient id="paint0_radial_2015_30" cx="0" cy="0" r="1" gradientUnits="userSpaceOnUse" gradientTransform="translate(32.8272) rotate(90) scale(34.7368 860.65)">
<stop stop-color="#7855EF"/>
<stop offset="1" stop-color="#6D51D9"/>
</radialGradient>
<radialGradient id="paint1_radial_2015_30" cx="0" cy="0" r="1" gradientUnits="userSpaceOnUse" gradientTransform="translate(32.8272) rotate(90) scale(34.7368 860.65)">
<stop stop-color="#7855EF"/>
<stop offset="1" stop-color="#6D51D9"/>
</radialGradient>
<radialGradient id="paint2_radial_2015_30" cx="0" cy="0" r="1" gradientUnits="userSpaceOnUse" gradientTransform="translate(32.8272) rotate(90) scale(34.7368 860.65)">
<stop stop-color="#7855EF"/>
<stop offset="1" stop-color="#6D51D9"/>
</radialGradient>
<radialGradient id="paint3_radial_2015_30" cx="0" cy="0" r="1" gradientUnits="userSpaceOnUse" gradientTransform="translate(32.8272) rotate(90) scale(34.7368 860.65)">
<stop stop-color="#7855EF"/>
<stop offset="1" stop-color="#6D51D9"/>
</radialGradient>
<radialGradient id="paint4_radial_2015_30" cx="0" cy="0" r="1" gradientUnits="userSpaceOnUse" gradientTransform="translate(32.8272) rotate(90) scale(34.7368 860.65)">
<stop stop-color="#7855EF"/>
<stop offset="1" stop-color="#6D51D9"/>
</radialGradient>
</defs>
</svg>
