<svg width="18" height="18" viewBox="0 0 18 18" fill="none" xmlns="http://www.w3.org/2000/svg">
<path d="M6.48438 2.83359L7.57812 5.45859C7.76953 5.89609 7.66016 6.41562 7.27734 6.7164L5.9375 7.83749C6.83984 9.75156 8.39844 11.3102 10.3125 12.2125L11.4336 10.8727C11.7344 10.4898 12.2539 10.3805 12.6914 10.5719L15.3164 11.6656C15.8359 11.857 16.082 12.4312 15.9453 12.9508L15.2891 15.357C15.1523 15.8219 14.7422 16.15 14.25 16.15C7.46875 16.15 2 10.6812 2 3.89999C2 3.40781 2.32812 2.99765 2.79297 2.86093L5.19922 2.20468C5.71875 2.06796 6.29297 2.31406 6.48438 2.83359Z" fill="#212121"/>
</svg>
