<svg width="32" height="32" viewBox="0 0 32 32" fill="none" xmlns="http://www.w3.org/2000/svg">
<path opacity="0.3" d="M12.9212 0H16L14.46 2.66625L12.9212 5.33375L11.3812 2.66625L9.84125 0H12.9212Z" fill="#091915"/>
<path opacity="0.5" d="M9.84125 5.33375H12.9212L11.3812 8L9.84125 10.6662L8.3025 8L6.7625 5.33375H9.84125Z" fill="#091915"/>
<path opacity="0.8" d="M19.0788 0H22.1588L20.6187 2.66625L19.0788 5.33375L17.54 2.66625L16 0H19.0788Z" fill="#091915"/>
<path opacity="0.8" d="M12.9212 10.6663H16L14.46 13.3338L12.9212 16L11.3812 13.3338L9.84125 10.6663H12.9212Z" fill="#091915"/>
<path opacity="0.4" d="M9.84125 5.33375H6.7625L8.3025 2.66625L9.84125 0L11.3812 2.66625L12.9212 5.33375H9.84125Z" fill="#091915"/>
<path opacity="0.6" d="M16 5.33375H12.9212L14.46 2.66625L16 0L17.54 2.66625L19.0787 5.33375H16Z" fill="#091915"/>
<path opacity="0.6" d="M16 26.6663H19.0787L17.54 29.3338L16 32L14.46 29.3338L12.9212 26.6663H16Z" fill="#091915"/>
<path opacity="0.8" d="M12.9212 32H9.84125L11.3812 29.3338L12.9212 26.6663L14.46 29.3338L16 32H12.9212Z" fill="#091915"/>
<path opacity="0.4" d="M22.1588 26.6663H25.2375L23.6975 29.3338L22.1588 32L20.6187 29.3338L19.0788 26.6663H22.1588Z" fill="#091915"/>
<path opacity="0.3" d="M19.0788 32H16L17.54 29.3338L19.0788 26.6663L20.6187 29.3338L22.1588 32H19.0788Z" fill="#091915"/>
<path opacity="0.6" d="M12.9212 10.6662H9.84125L11.3812 8L12.9212 5.33375L14.46 8L16 10.6662H12.9212Z" fill="#091915"/>
<path opacity="0.6" d="M19.0788 21.3337H22.1588L20.6187 24L19.0788 26.6662L17.54 24L16 21.3337H19.0788Z" fill="#091915"/>
<path opacity="0.8" d="M19.0788 21.3337H16L17.54 18.6663L19.0788 16L20.6187 18.6663L22.1588 21.3337H19.0788Z" fill="#091915"/>
<path opacity="0.5" d="M22.1588 26.6662H19.0788L20.6187 24L22.1588 21.3337L23.6975 24L25.2375 26.6662H22.1588Z" fill="#091915"/>
<path d="M23.6975 2.66625L22.1587 0L20.6187 2.66625L19.0787 5.33375L17.54 8L16 10.6663L14.46 13.3337L12.9212 16L11.3812 18.6663L9.84125 21.3337L8.3025 24L6.7625 26.6663L8.3025 29.3337L9.84125 32L11.3812 29.3337L12.9212 26.6663L14.46 24L16 21.3337L17.54 18.6663L19.0787 16L20.6187 13.3337L22.1587 10.6663L23.6975 8L25.2375 5.33375L23.6975 2.66625Z" fill="#091915"/>
</svg>
